<svg width="17" height="17" viewBox="0 0 17 17" fill="none" xmlns="http://www.w3.org/2000/svg">
<path d="M8.33333 13.291C7.38563 13.291 6.45921 13.01 5.67123 12.4835C4.88324 11.957 4.26908 11.2086 3.90641 10.333C3.54374 9.45748 3.44885 8.49403 3.63374 7.56454C3.81862 6.63505 4.27499 5.78126 4.94511 5.11113C5.61524 4.441 6.46903 3.98464 7.39853 3.79975C8.32802 3.61487 9.29146 3.70976 10.167 4.07243C11.0426 4.4351 11.7909 5.04926 12.3175 5.83724C12.844 6.62523 13.125 7.55165 13.125 8.49935C13.1228 9.7695 12.6173 10.987 11.7191 11.8851C10.821 12.7833 9.60349 13.2888 8.33333 13.291ZM8.33333 4.95768C7.63286 4.95768 6.94811 5.1654 6.36569 5.55456C5.78326 5.94372 5.32932 6.49686 5.06126 7.14401C4.7932 7.79117 4.72306 8.50328 4.85972 9.19029C4.99637 9.87731 5.33369 10.5084 5.829 11.0037C6.32431 11.499 6.95537 11.8363 7.64239 11.973C8.3294 12.1096 9.04152 12.0395 9.68867 11.7714C10.3358 11.5034 10.889 11.0494 11.2781 10.467C11.6673 9.88457 11.875 9.19982 11.875 8.49935C11.8728 7.56072 11.499 6.66116 10.8352 5.99744C10.1715 5.33373 9.27197 4.95988 8.33333 4.95768ZM8.33333 2.66602C8.16824 2.66386 8.01052 2.59732 7.89378 2.48057C7.77703 2.36383 7.71049 2.2061 7.70833 2.04102V0.791016C7.70833 0.625255 7.77418 0.466284 7.89139 0.349074C8.0086 0.231864 8.16757 0.166016 8.33333 0.166016C8.49909 0.166016 8.65806 0.231864 8.77527 0.349074C8.89248 0.466284 8.95833 0.625255 8.95833 0.791016V2.04102C8.95617 2.2061 8.88963 2.36383 8.77289 2.48057C8.65614 2.59732 8.49842 2.66386 8.33333 2.66602ZM8.33333 16.8327C8.16824 16.8305 8.01052 16.764 7.89378 16.6472C7.77703 16.5305 7.71049 16.3728 7.70833 16.2077V14.9577C7.70833 14.7919 7.77418 14.6329 7.89139 14.5157C8.0086 14.3985 8.16757 14.3327 8.33333 14.3327C8.49909 14.3327 8.65806 14.3985 8.77527 14.5157C8.89248 14.6329 8.95833 14.7919 8.95833 14.9577V16.2077C8.95617 16.3728 8.88963 16.5305 8.77289 16.6472C8.65614 16.764 8.49842 16.8305 8.33333 16.8327ZM16.0417 9.12435H14.7917C14.6259 9.12435 14.4669 9.0585 14.3497 8.94129C14.2325 8.82408 14.1667 8.66511 14.1667 8.49935C14.1667 8.33359 14.2325 8.17462 14.3497 8.05741C14.4669 7.9402 14.6259 7.87435 14.7917 7.87435H16.0417C16.2074 7.87435 16.3664 7.9402 16.4836 8.05741C16.6008 8.17462 16.6667 8.33359 16.6667 8.49935C16.6667 8.66511 16.6008 8.82408 16.4836 8.94129C16.3664 9.0585 16.2074 9.12435 16.0417 9.12435ZM1.875 9.12435H0.625C0.45924 9.12435 0.300268 9.0585 0.183058 8.94129C0.0658479 8.82408 0 8.66511 0 8.49935C0 8.33359 0.0658479 8.17462 0.183058 8.05741C0.300268 7.9402 0.45924 7.87435 0.625 7.87435H1.875C2.04076 7.87435 2.19973 7.9402 2.31694 8.05741C2.43415 8.17462 2.5 8.33359 2.5 8.49935C2.5 8.66511 2.43415 8.82408 2.31694 8.94129C2.19973 9.0585 2.04076 9.12435 1.875 9.12435ZM3.75 4.54102C3.58921 4.52872 3.43964 4.45393 3.33333 4.33268L2.425 3.49935C2.36536 3.43971 2.31805 3.3689 2.28577 3.29098C2.25349 3.21305 2.23688 3.12953 2.23688 3.04518C2.23688 2.96084 2.25349 2.87732 2.28577 2.79939C2.31805 2.72146 2.36536 2.65066 2.425 2.59102C2.48464 2.53137 2.55545 2.48406 2.63337 2.45178C2.7113 2.41951 2.79482 2.40289 2.87917 2.40289C2.96351 2.40289 3.04703 2.41951 3.12496 2.45178C3.20289 2.48406 3.27369 2.53137 3.33333 2.59102L4.16667 3.49935C4.26916 3.61394 4.32582 3.76228 4.32582 3.91602C4.32582 4.06975 4.26916 4.21809 4.16667 4.33268C4.06036 4.45393 3.91079 4.52872 3.75 4.54102ZM13.8 14.591C13.7179 14.5914 13.6365 14.5754 13.5607 14.5439C13.4848 14.5124 13.416 14.4661 13.3583 14.4077L12.5 13.4993C12.4443 13.3827 12.4261 13.2517 12.448 13.1243C12.4698 12.9969 12.5306 12.8794 12.622 12.7881C12.7134 12.6967 12.8309 12.6359 12.9583 12.614C13.0857 12.5921 13.2167 12.6103 13.3333 12.666L14.2417 13.4993C14.3587 13.6165 14.4244 13.7754 14.4244 13.941C14.4244 14.1066 14.3587 14.2655 14.2417 14.3827C14.1861 14.4456 14.1183 14.4966 14.0423 14.5324C13.9664 14.5683 13.8839 14.5882 13.8 14.591ZM12.9167 4.54102C12.7559 4.52872 12.6063 4.45393 12.5 4.33268C12.3975 4.21809 12.3408 4.06975 12.3408 3.91602C12.3408 3.76228 12.3975 3.61394 12.5 3.49935L13.3333 2.59102C13.4538 2.47056 13.6172 2.40289 13.7875 2.40289C13.9578 2.40289 14.1212 2.47056 14.2417 2.59102C14.3621 2.71147 14.4298 2.87484 14.4298 3.04518C14.4298 3.21553 14.3621 3.3789 14.2417 3.49935L13.3333 4.33268C13.227 4.45393 13.0775 4.52872 12.9167 4.54102ZM2.86667 14.591C2.78455 14.5914 2.70318 14.5754 2.62734 14.5439C2.5515 14.5124 2.4827 14.4661 2.425 14.4077C2.30796 14.2905 2.24222 14.1316 2.24222 13.966C2.24222 13.8004 2.30796 13.6415 2.425 13.5243L3.33333 12.666C3.44996 12.6103 3.58099 12.5921 3.70837 12.614C3.83576 12.6359 3.95324 12.6967 4.04463 12.7881C4.13602 12.8794 4.19683 12.9969 4.21869 13.1243C4.24054 13.2517 4.22237 13.3827 4.16667 13.4993L3.33333 14.4077C3.27272 14.4692 3.19986 14.5173 3.11947 14.5489C3.03908 14.5805 2.95295 14.5948 2.86667 14.591Z" fill="#FFB800"/>
</svg>
